<svg width="28" height="24" viewBox="0 0 28 24" fill="none" xmlns="http://www.w3.org/2000/svg">
<path d="M24.916 0C26.2819 0 27.4424 1.10182 27.4424 2.52637V11.999C27.4423 13.4233 26.2819 14.5254 24.916 14.5254H20.8662L23.9482 22.917C24.1013 23.3338 23.8873 23.7952 23.4707 23.9482C22.9847 24.1266 22.5642 23.81 22.4395 23.4707L19.1533 14.5254H18.5898L15.3379 23.4688C15.2086 23.8238 14.7845 24.1228 14.3076 23.9492C13.8904 23.7976 13.6754 23.3362 13.8271 22.9189L16.8789 14.5254H13.9961C13.3918 15.6462 12.0562 15.9395 11.0713 15.4473L8.49707 14.1602V23.1943C8.49681 23.6379 8.13712 23.9979 7.69336 23.998H2.52637C2.08246 23.998 1.72292 23.638 1.72266 23.1943V18.7002C0.722535 18.3638 4.74523e-05 17.4168 0 16.3047V13.7207C0.000178217 11.7185 1.12503 10.1021 2.59766 9.27344C1.79797 8.5731 1.29199 7.54527 1.29199 6.40137C1.29203 4.29636 3.00421 2.58327 5.10938 2.58301C7.21455 2.58301 8.92769 4.2962 8.92773 6.40137C8.92773 7.42413 8.52244 8.35394 7.86523 9.04004C7.9427 9.07375 8.02012 9.1088 8.0957 9.14648L10.334 10.2598V2.52637C10.334 1.13344 11.4674 0 12.8604 0H24.916ZM5.10938 10.2197C3.20753 10.2199 1.60866 11.7565 1.6084 13.7207V16.3047C1.60846 16.8111 2.01994 17.2227 2.52637 17.2227C2.97001 17.2227 3.32982 17.5828 3.33008 18.0264V22.3896H6.88867V12.8604C6.88867 12.263 7.51926 11.8739 8.05273 12.1406C8.07905 12.1538 10.2704 13.2486 11.79 14.0088C11.9443 14.0858 12.1255 14.0936 12.2861 14.0283C12.4378 13.9659 12.5614 13.8365 12.6162 13.6836C12.6181 13.6775 12.62 13.6709 12.6221 13.665C12.702 13.4366 12.5991 13.1832 12.3818 13.0752C11.3662 12.5694 7.37793 10.5859 7.37793 10.5859C6.89716 10.3459 6.35904 10.2198 5.82031 10.2197H5.10938ZM12.8604 1.6084C12.3539 1.6084 11.9414 2.02011 11.9414 2.52637V11.0596C12.3363 11.2559 12.7053 11.4396 13.0225 11.5977L14.7246 8.19434C14.9233 7.79755 15.406 7.63686 15.8027 7.83496C16.1999 8.03365 16.3615 8.5169 16.1631 8.91406L14.167 12.9043C14.1684 12.9084 14.1695 12.9127 14.1709 12.917H24.916C25.1582 12.917 25.3948 12.8192 25.5654 12.6484C25.7388 12.4751 25.834 12.2446 25.834 11.999V2.52637C25.834 2.28082 25.7395 2.04988 25.5664 1.87695C25.3956 1.70569 25.1583 1.6084 24.916 1.6084H12.8604ZM23.1943 9.47266C23.6381 9.47291 23.9979 9.83257 23.998 10.2764C23.998 10.7201 23.638 11.0808 23.1943 11.0811H18.8877C18.444 11.0809 18.084 10.7201 18.084 10.2764C18.0841 9.83252 18.4441 9.47282 18.8877 9.47266H23.1943ZM5.10938 4.19141C3.891 4.19155 2.89946 5.18276 2.89941 6.40137C2.89941 7.6198 3.89097 8.61118 5.10938 8.61133C6.32811 8.61133 7.31934 7.61989 7.31934 6.40137C7.31929 5.18267 6.32808 4.19141 5.10938 4.19141ZM23.1943 6.45898C23.6382 6.45924 23.998 6.81878 23.998 7.2627C23.9979 7.70651 23.6379 8.06615 23.1943 8.06641H18.8877C18.444 8.06625 18.0841 7.70656 18.084 7.2627C18.084 6.81872 18.444 6.45914 18.8877 6.45898H23.1943ZM23.1934 3.44434C23.6373 3.44434 23.9979 3.8041 23.998 4.24805C23.998 4.69212 23.6372 5.05273 23.1934 5.05273H14.582C14.1381 5.05259 13.7783 4.69203 13.7783 4.24805C13.7785 3.80419 14.1382 3.44448 14.582 3.44434H23.1934Z" fill="url(#paint0_linear_118_1735)"/>
<defs>
<linearGradient id="paint0_linear_118_1735" x1="2.36421e-07" y1="13.5" x2="27" y2="13.5" gradientUnits="userSpaceOnUse">
<stop stop-color="#DE7273"/>
<stop offset="0.514423" stop-color="#97C6E2"/>
<stop offset="1" stop-color="#7373B4"/>
</linearGradient>
</defs>
</svg>
