<svg width="37" height="24" viewBox="0 0 37 24" fill="none" xmlns="http://www.w3.org/2000/svg">
<path d="M18.1689 0C21.4721 0 24.2634 2.79065 24.2637 6.09375C24.2637 8.0238 23.3095 9.7776 21.8584 10.9033C22.36 11.0137 22.8415 11.1771 23.2979 11.3867C24.0122 10.5298 24.9588 9.91706 26.0156 9.6123C25.0423 8.73514 24.4199 7.4714 24.4199 6.09375C24.4202 3.51833 26.5957 1.34305 29.1719 1.34277C31.7475 1.34277 33.9236 3.51817 33.9238 6.09375C33.9238 7.472 33.3001 8.73509 32.3262 9.6123C34.6415 10.2832 36.3389 12.4222 36.3389 14.9502V17.3652C36.3389 17.3737 36.3362 17.3822 36.3359 17.3906C36.3348 17.4229 36.3316 17.4546 36.3262 17.4863C36.3234 17.5029 36.3203 17.519 36.3164 17.5352C36.3096 17.5631 36.301 17.5902 36.291 17.6172C36.2839 17.6365 36.2763 17.6553 36.2676 17.6738C36.2563 17.6978 36.2433 17.7205 36.2295 17.7432C36.2195 17.7595 36.2095 17.7756 36.1982 17.791C36.1834 17.8115 36.1674 17.8307 36.1504 17.8496C36.1338 17.868 36.117 17.8857 36.0986 17.9023C36.0825 17.9169 36.0654 17.9301 36.0479 17.9434C36.028 17.9584 36.0077 17.9724 35.9863 17.9854C35.9756 17.9918 35.9663 18.0009 35.9551 18.0068C34.4755 18.7953 32.8822 19.3168 31.2217 19.5566C31.1861 19.561 31.1504 19.5635 31.1162 19.5635C30.761 19.5633 30.4498 19.3022 30.3975 18.9404C30.3408 18.543 30.6163 18.1748 31.0137 18.1172C32.3654 17.9226 33.6653 17.5185 34.8857 16.918V14.9502C34.8857 12.6877 33.0447 10.8467 30.7822 10.8467C30.779 10.8467 30.7757 10.8457 30.7725 10.8457H27.5615L27.3018 10.8545C26.2524 10.92 25.2808 11.3813 24.5713 12.1387C26.3364 13.4453 27.4833 15.5418 27.4834 17.9014V21.1221C27.4834 21.1306 27.4808 21.139 27.4805 21.1475C27.4793 21.1791 27.4759 21.2101 27.4707 21.2412C27.4679 21.2584 27.4649 21.2753 27.4609 21.292C27.4537 21.3217 27.4444 21.3504 27.4336 21.3789C27.4277 21.3946 27.421 21.4097 27.4141 21.4248C27.4018 21.4514 27.3884 21.4769 27.373 21.502C27.3636 21.5173 27.3543 21.5324 27.3438 21.5469C27.3276 21.5692 27.3098 21.5898 27.291 21.6104C27.2768 21.6259 27.2626 21.641 27.2471 21.6553C27.2282 21.6726 27.2084 21.6886 27.1875 21.7041C27.1701 21.717 27.1523 21.7289 27.1338 21.7402C27.1221 21.7474 27.1119 21.7571 27.0996 21.7637C24.3029 23.2536 21.236 24 18.1689 24C15.1021 23.9999 12.036 23.2542 9.24023 21.7637C9.22922 21.7578 9.21957 21.7495 9.20898 21.7432C9.18718 21.73 9.16671 21.7155 9.14648 21.7002C9.12891 21.6869 9.11179 21.6738 9.0957 21.6592C9.07687 21.6421 9.05894 21.6244 9.04199 21.6055C9.02628 21.5879 9.01186 21.5696 8.99805 21.5508C8.98552 21.5337 8.97392 21.5162 8.96289 21.498C8.94976 21.4764 8.93753 21.4545 8.92676 21.4316C8.91698 21.4109 8.90821 21.3899 8.90039 21.3682C8.89239 21.346 8.88571 21.3236 8.87988 21.3008C8.87428 21.2786 8.86973 21.2563 8.86621 21.2334C8.86215 21.2075 8.85964 21.1816 8.8584 21.1553C8.8579 21.1443 8.85547 21.1332 8.85547 21.1221V17.9014C8.85557 15.5417 10.0019 13.4452 11.7666 12.1387C10.9988 11.3198 9.92488 10.8457 8.77734 10.8457H5.56641C5.56315 10.8457 5.55991 10.8467 5.55664 10.8467C3.29413 10.846 1.45312 12.687 1.45312 14.9502V16.917C2.67366 17.5175 3.97407 17.9216 5.3252 18.1162C5.72248 18.1738 5.99799 18.5421 5.94141 18.9395C5.88909 19.302 5.57791 19.5633 5.22266 19.5635C5.1885 19.5635 5.1528 19.5608 5.11719 19.5557C3.45663 19.3158 1.8634 18.7944 0.383789 18.0059C0.374436 18.0009 0.366466 17.9936 0.357422 17.9883C0.333414 17.9741 0.310205 17.9592 0.288086 17.9424C0.270768 17.9293 0.254148 17.9158 0.238281 17.9014C0.218981 17.8838 0.200902 17.8652 0.183594 17.8457C0.169193 17.8294 0.156345 17.8123 0.143555 17.7949C0.129845 17.7763 0.11739 17.7572 0.105469 17.7373C0.0935723 17.7174 0.0821863 17.6976 0.0722656 17.6768C0.0612237 17.6536 0.0515482 17.6299 0.0429688 17.6055C0.0350353 17.5829 0.0281572 17.5603 0.0224609 17.5371C0.018241 17.5197 0.0146639 17.5022 0.0117188 17.4844C0.00648719 17.4533 0.0031272 17.4222 0.00195312 17.3906C0.00166517 17.3822 0 17.3737 0 17.3652V14.9502C0 12.4221 1.69723 10.2834 4.01172 9.6123C3.03809 8.73511 2.41504 7.47176 2.41504 6.09375C2.41527 3.51832 4.59059 1.34303 7.16602 1.34277C9.74164 1.34277 11.9177 3.51817 11.918 6.09375C11.918 7.47151 11.2946 8.73415 10.3213 9.61133C11.3789 9.91579 12.3253 10.5295 13.04 11.3867C13.4964 11.177 13.978 11.0138 14.4795 10.9033C13.0288 9.77758 12.0752 8.02354 12.0752 6.09375C12.0754 2.79081 14.866 0.000268814 18.1689 0ZM15.7285 12.1953C12.714 12.3488 10.3097 14.8494 10.3096 17.9014V20.6777C15.2635 23.1663 21.076 23.1661 26.0293 20.6777V17.9014C26.0291 14.8494 23.6248 12.3488 20.6104 12.1953L20.3164 12.1885H16.0225L15.7285 12.1953ZM18.1689 1.45312C15.6539 1.45339 13.5295 3.57866 13.5293 6.09375C13.5293 8.60903 15.6537 10.7341 18.1689 10.7344C20.6844 10.7344 22.8096 8.60919 22.8096 6.09375C22.8093 3.5785 20.6842 1.45312 18.1689 1.45312ZM7.16602 2.7959C5.37844 2.79616 3.8684 4.30617 3.86816 6.09375C3.86816 7.88151 5.3783 9.39232 7.16602 9.39258C8.95393 9.39258 10.4648 7.88167 10.4648 6.09375C10.4646 4.30602 8.95379 2.7959 7.16602 2.7959ZM29.1719 2.7959C27.3843 2.79617 25.8733 4.30618 25.873 6.09375C25.873 7.8815 27.3842 9.3923 29.1719 9.39258C30.9598 9.39258 32.4707 7.88167 32.4707 6.09375C32.4705 4.30602 30.9597 2.7959 29.1719 2.7959Z" fill="url(#paint0_linear_118_1655)"/>
<defs>
<linearGradient id="paint0_linear_118_1655" x1="0" y1="12" x2="36.3389" y2="12" gradientUnits="userSpaceOnUse">
<stop stop-color="#E46B6A"/>
<stop offset="0.485577" stop-color="#9BCFE7"/>
<stop offset="1" stop-color="#716FB2"/>
</linearGradient>
</defs>
</svg>
