<svg width="27" height="24" viewBox="0 0 27 24" fill="none" xmlns="http://www.w3.org/2000/svg">
<path d="M25.6661 22.5246H24.3461L17.9399 8.84674V5.13322H23.4661C23.6606 5.13322 23.8472 5.05596 23.9847 4.91844C24.1222 4.78091 24.1995 4.59439 24.1995 4.3999V0.733317C24.1995 0.538829 24.1222 0.352307 23.9847 0.214784C23.8472 0.07726 23.6606 0 23.4661 0H17.2066C17.0121 0 16.8255 0.07726 16.688 0.214784C16.5505 0.352307 16.4732 0.538829 16.4732 0.733317V8.7998L11.6539 16.5084L8.28062 14.112C8.19956 14.0536 8.10734 14.0125 8.00971 13.9913C7.91208 13.9701 7.81114 13.9693 7.71317 13.9888C7.6152 14.0084 7.5223 14.0479 7.44027 14.1049C7.35824 14.1619 7.28883 14.2352 7.23637 14.3202L2.10902 22.5334H0.733317C0.538829 22.5334 0.352307 22.6106 0.214784 22.7481C0.07726 22.8857 0 23.0722 0 23.2667C0 23.4612 0.07726 23.6477 0.214784 23.7852C0.352307 23.9227 0.538829 24 0.733317 24H25.6661C25.8606 24 26.0471 23.9227 26.1846 23.7852C26.3222 23.6477 26.3994 23.4612 26.3994 23.2667C26.3994 23.0722 26.3222 22.8857 26.1846 22.7481C26.0471 22.6106 25.8606 22.5334 25.6661 22.5334V22.5246ZM22.7328 3.66659H17.9399V1.46663H22.7328V3.66659ZM8.06649 15.7575L11.4397 18.154C11.521 18.2126 11.6135 18.2538 11.7114 18.275C11.8093 18.2962 11.9106 18.297 12.0088 18.2772C12.1067 18.257 12.1995 18.2172 12.2817 18.1603C12.3639 18.1033 12.4337 18.0303 12.4869 17.9457L17.1156 10.5392L22.7328 22.5246H3.83671L8.06649 15.7575Z" fill="url(#paint0_linear_118_1732)"/>
<defs>
<linearGradient id="paint0_linear_118_1732" x1="0" y1="12" x2="26.3994" y2="12" gradientUnits="userSpaceOnUse">
<stop stop-color="#E46B6A"/>
<stop offset="0.485577" stop-color="#9BCFE7"/>
<stop offset="1" stop-color="#716FB2"/>
</linearGradient>
</defs>
</svg>
