<svg width="28" height="24" viewBox="0 0 28 24" fill="none" xmlns="http://www.w3.org/2000/svg">
<path d="M24.915 10.627C25.157 10.6249 25.3904 10.7177 25.5645 10.8857L27.4111 12.7324C27.54 12.8615 27.6275 13.0262 27.6631 13.2051C27.6986 13.384 27.6802 13.5697 27.6104 13.7383C27.5405 13.9068 27.4222 14.051 27.2705 14.1523C27.1188 14.2536 26.9402 14.3076 26.7578 14.3076C26.6369 14.3078 26.517 14.2845 26.4053 14.2383C26.2933 14.1919 26.191 14.123 26.1055 14.0371L25.7168 13.6484C25.3575 16.2206 24.1738 18.624 22.3164 20.4814C20.0667 22.7311 17.0165 23.9964 13.835 24C12.255 24.0044 10.6897 23.6947 9.23047 23.0889C7.77142 22.4831 6.44719 21.5936 5.33496 20.4717C5.24935 20.3858 5.18099 20.283 5.13477 20.1709C5.08873 20.0591 5.0653 19.9393 5.06543 19.8184C5.06562 19.6972 5.08925 19.5767 5.13574 19.4648C5.18233 19.3529 5.25103 19.2507 5.33691 19.165C5.42275 19.0795 5.52472 19.012 5.63672 18.9658C5.74883 18.9196 5.86897 18.8953 5.99023 18.8955C6.11148 18.8957 6.23181 18.9202 6.34375 18.9668C6.45548 19.0133 6.55709 19.0813 6.64258 19.167C8.06115 20.5904 9.87034 21.5614 11.8408 21.9561C13.8114 22.3507 15.8555 22.1513 17.7129 21.3838C19.5701 20.6163 21.1582 19.3149 22.2754 17.6445C23.0251 16.5235 23.5381 15.2696 23.7959 13.959L23.7188 14.0371C23.6332 14.123 23.5309 14.1919 23.4189 14.2383C23.307 14.2846 23.1866 14.3078 23.0654 14.3076C22.883 14.3075 22.7044 14.2537 22.5527 14.1523C22.4011 14.0509 22.2827 13.9068 22.2129 13.7383C22.1431 13.5698 22.1247 13.384 22.1602 13.2051C22.1957 13.0261 22.2841 12.8615 22.4131 12.7324L24.2598 10.8857C24.4337 10.7179 24.6665 10.625 24.9082 10.627H24.915ZM12.9346 5.16602C13.8299 4.98793 14.7582 5.07938 15.6016 5.42871C16.4447 5.77806 17.1658 6.36908 17.6729 7.12793C18.18 7.88693 18.4502 8.77954 18.4502 9.69238C18.449 10.7867 18.0585 11.8395 17.3574 12.6689C17.8773 12.8506 18.3552 13.1473 18.752 13.5439C19.4442 14.2362 19.8339 15.1754 19.835 16.1543V18C19.835 18.2448 19.7376 18.4802 19.5645 18.6533C19.3914 18.8262 19.1567 18.9228 18.9121 18.9229C18.6673 18.9229 18.4319 18.8264 18.2588 18.6533C18.0857 18.4802 17.9893 18.2448 17.9893 18V16.1543C17.9893 15.6647 17.7944 15.1948 17.4482 14.8486C17.102 14.5024 16.6322 14.3076 16.1426 14.3076H11.5273C11.0377 14.3076 10.5679 14.5024 10.2217 14.8486C9.8755 15.1948 9.68066 15.6647 9.68066 16.1543V18C9.68066 18.2448 9.58423 18.4802 9.41113 18.6533C9.23802 18.8264 9.00263 18.9229 8.75781 18.9229C8.5132 18.9228 8.27852 18.8262 8.10547 18.6533C7.93236 18.4802 7.83496 18.2448 7.83496 18V16.1543C7.83606 15.1754 8.22576 14.2362 8.91797 13.5439C9.31433 13.1477 9.79137 12.8506 10.3105 12.6689C10.0053 12.3075 9.75433 11.9008 9.57129 11.459C9.22196 10.6156 9.13051 9.6873 9.30859 8.79199C9.48669 7.8967 9.92582 7.07418 10.5713 6.42871C11.2168 5.78324 12.0393 5.3441 12.9346 5.16602ZM9.2334 0.917969C11.4237 0.00852507 13.8345 -0.232137 16.1611 0.227539C18.4876 0.687233 20.6259 1.82604 22.3057 3.5C22.4789 3.67282 22.5767 3.90765 22.5771 4.15234C22.5775 4.39705 22.4804 4.63236 22.3076 4.80566C22.1348 4.97889 21.8999 5.07673 21.6553 5.07715C21.4105 5.07745 21.1753 4.98039 21.002 4.80762C19.5805 3.39138 17.7712 2.42792 15.8027 2.03906C13.8341 1.65026 11.7937 1.85347 9.94043 2.62305C8.08737 3.39264 6.50369 4.69443 5.38965 6.36328C4.75555 7.31326 4.29048 8.3582 4.00684 9.45215C4.17344 9.31526 4.38341 9.24034 4.60059 9.24219C4.84256 9.24429 5.07398 9.34162 5.24512 9.5127C5.41625 9.68383 5.5135 9.91522 5.51562 10.1572C5.51773 10.3992 5.42496 10.6325 5.25684 10.8066L3.41016 12.6523C3.40185 12.6607 3.39239 12.6678 3.38379 12.6758C3.37922 12.68 3.37477 12.6843 3.37012 12.6885C3.35123 12.7053 3.33169 12.7211 3.31152 12.7363C3.27358 12.7649 3.23495 12.7922 3.19336 12.8145C3.18271 12.8202 3.17104 12.8238 3.16016 12.8291C3.15518 12.8315 3.15053 12.8346 3.14551 12.8369C3.13404 12.8422 3.12302 12.8487 3.11133 12.8535C3.0555 12.8767 2.99746 12.8935 2.93848 12.9053C2.92783 12.9074 2.91699 12.9084 2.90625 12.9102C2.89975 12.9112 2.89325 12.9122 2.88672 12.9131C2.87596 12.9146 2.86531 12.9168 2.85449 12.918C2.82255 12.9213 2.79023 12.9229 2.75781 12.9229C2.71602 12.9228 2.67474 12.9187 2.63379 12.9131C2.62496 12.9119 2.6162 12.9106 2.60742 12.9092C2.52627 12.8957 2.44735 12.873 2.37305 12.8389C2.36604 12.8356 2.35947 12.8315 2.35254 12.8281C2.28885 12.7969 2.22825 12.7593 2.17285 12.7139L2.15137 12.6943C2.14163 12.6858 2.1324 12.6769 2.12305 12.668L2.10547 12.6523L0.258789 10.8066C0.0907248 10.6326 -0.00210263 10.3992 0 10.1572C0.00212029 9.91522 0.0993759 9.68383 0.270508 9.5127C0.441649 9.34157 0.673027 9.2443 0.915039 9.24219C1.15701 9.24008 1.39037 9.33291 1.56445 9.50098L2.0127 9.94922C2.29747 8.30785 2.92123 6.73593 3.85449 5.33789C5.17127 3.36542 7.04309 1.82742 9.2334 0.917969ZM13.835 6.92285C13.2874 6.92285 12.7522 7.08553 12.2969 7.38965C11.8415 7.69394 11.486 8.1268 11.2764 8.63281C11.0669 9.13873 11.0123 9.69535 11.1191 10.2324C11.226 10.7696 11.4897 11.2631 11.877 11.6504C12.2642 12.0377 12.7577 12.3014 13.2949 12.4082C13.832 12.515 14.3886 12.4605 14.8945 12.251C15.4005 12.0414 15.8334 11.6859 16.1377 11.2305C16.4418 10.7752 16.6045 10.2399 16.6045 9.69238C16.6038 8.95816 16.3112 8.25453 15.792 7.73535C15.2728 7.21618 14.5692 6.92359 13.835 6.92285Z" fill="url(#paint0_linear_118_1762)"/>
<defs>
<linearGradient id="paint0_linear_118_1762" x1="2.38475e-07" y1="13.5" x2="27.2345" y2="13.5" gradientUnits="userSpaceOnUse">
<stop stop-color="#DE7273"/>
<stop offset="0.514423" stop-color="#97C6E2"/>
<stop offset="1" stop-color="#7373B4"/>
</linearGradient>
</defs>
</svg>
