<svg width="26" height="24" viewBox="0 0 26 24" fill="none" xmlns="http://www.w3.org/2000/svg">
<path fill-rule="evenodd" clip-rule="evenodd" d="M12.5911 20.6183C13.0547 20.6183 13.4309 20.9936 13.4309 21.4572V23.1613C13.4308 23.6248 13.0546 24.0002 12.5911 24.0002C12.1278 24 11.7524 23.6246 11.7522 23.1613V21.4572C11.7523 20.9938 12.1277 20.6185 12.5911 20.6183ZM10.8352 2.39859C11.5532 0.944255 13.6297 0.943747 14.3479 2.39859L16.2073 6.16617L20.3645 6.77066C21.9699 7.00395 22.6123 8.97864 21.4505 10.1115L18.4417 13.0441L19.1526 17.1847C19.4267 18.784 17.7438 20.003 16.3098 19.2492L12.5911 17.2941L8.87332 19.2492C7.4373 20.0039 5.75639 18.7842 6.03054 17.1847L6.74148 13.0441L3.73269 10.1115C2.57103 8.97903 3.21257 7.004 4.81863 6.77066L8.97586 6.16617L10.8352 2.39859ZM12.8421 3.14176C12.7388 2.93305 12.4443 2.93327 12.3411 3.14176L10.2864 7.30484C10.1641 7.55259 9.92696 7.72408 9.65359 7.76383L5.05984 8.4318C4.82911 8.46539 4.73758 8.74658 4.90457 8.90933L8.22879 12.1496C8.42661 12.3424 8.51667 12.6204 8.47 12.8927L7.68582 17.4689C7.64674 17.6983 7.88493 17.8717 8.09109 17.7638L12.2005 15.6027C12.4448 15.4743 12.7373 15.4744 12.9817 15.6027L17.0911 17.7638C17.2973 17.8721 17.5364 17.6985 17.4973 17.4689L16.7122 12.8927C16.6655 12.6205 16.7566 12.3424 16.9544 12.1496L20.2786 8.90933C20.4455 8.74663 20.354 8.46539 20.1233 8.4318L15.5296 7.76383C15.2562 7.72413 15.019 7.55259 14.8968 7.30484L12.8421 3.14176ZM2.23757 13.5714C2.67843 13.4282 3.15194 13.6699 3.29519 14.1105C3.43847 14.5514 3.19708 15.0248 2.75613 15.1681L1.0989 15.7072C0.659021 15.8503 0.184765 15.6097 0.0412858 15.1681C-0.101943 14.7272 0.139449 14.2538 0.580348 14.1105L2.23757 13.5714ZM21.888 14.1105C22.0314 13.6698 22.5048 13.428 22.9456 13.5714L24.6028 14.1105C25.0436 14.2538 25.2851 14.7273 25.1419 15.1681C24.9984 15.6096 24.5241 15.85 24.0843 15.7072L22.427 15.1681C21.9861 15.0249 21.7447 14.5514 21.888 14.1105ZM4.45047 0.160311C4.82541 -0.112025 5.35078 -0.0289731 5.62332 0.345858L6.62722 1.72769C6.89976 2.10273 6.81574 2.62811 6.4407 2.90055C6.06588 3.17272 5.54148 3.08996 5.26883 2.715L4.26492 1.33316C3.99238 0.958122 4.07543 0.432799 4.45047 0.160311ZM19.5598 0.345858C19.8324 -0.0290019 20.3578 -0.112042 20.7327 0.160311C21.1077 0.43275 21.1907 0.958122 20.9182 1.33316L19.9143 2.715C19.6419 3.08983 19.1166 3.17311 18.7415 2.90055C18.3666 2.62806 18.2835 2.10266 18.5559 1.72769L19.5598 0.345858Z" fill="url(#paint0_linear_118_1780)"/>
<defs>
<linearGradient id="paint0_linear_118_1780" x1="2.16957e-07" y1="13.5001" x2="24.7772" y2="13.5001" gradientUnits="userSpaceOnUse">
<stop stop-color="#DE7273"/>
<stop offset="0.514423" stop-color="#97C6E2"/>
<stop offset="1" stop-color="#7373B4"/>
</linearGradient>
</defs>
</svg>
