<svg width="26" height="24" viewBox="0 0 26 24" fill="none" xmlns="http://www.w3.org/2000/svg">
<path d="M23.0791 0.00390625C24.7014 0.0861733 25.9961 1.43193 25.9961 3.07422V6.6875C25.996 7.1343 25.6333 7.49609 25.1865 7.49609H21.4658V20.1436C21.4658 22.2698 19.7356 23.9999 17.6094 24C17.5459 24 17.4826 23.9982 17.4199 23.9951V24H3.69434V23.9951C1.64281 23.91 0 22.2156 0 20.1436V18.1748C0.00020535 17.7283 0.362062 17.3664 0.808594 17.3662H3.59277L3.69434 2.93359C3.69434 1.31886 5.02563 0 6.66113 0H22.9219L23.0791 0.00390625ZM1.61816 20.1436C1.61816 21.3775 2.6222 22.3818 3.85645 22.3818H14.4727C14.0206 21.7502 13.7529 20.9778 13.7529 20.1436V18.9844H1.61816V20.1436ZM6.66113 1.61816C5.91766 1.61816 5.3125 2.21081 5.3125 2.93945L5.21094 17.3662H14.5615C15.0083 17.3662 15.3709 17.7281 15.3711 18.1748V20.1436C15.3711 21.3775 16.3754 22.3818 17.6094 22.3818C18.8433 22.3817 19.8477 21.3775 19.8477 20.1436V3.07422C19.8477 2.54782 19.9807 2.05177 20.2148 1.61816H6.66113ZM16.8809 14.2109C17.3277 14.2109 17.6904 14.5737 17.6904 15.0205C17.6903 15.4673 17.3276 15.8291 16.8809 15.8291H7.84766C7.40088 15.8291 7.0382 15.4673 7.03809 15.0205C7.03809 14.5737 7.4008 14.2109 7.84766 14.2109H16.8809ZM16.8809 10.9756C17.3277 10.9756 17.6904 11.3374 17.6904 11.7842C17.6904 12.2313 17.3277 12.5938 16.8809 12.5938H7.84766C7.4008 12.5938 7.03809 12.231 7.03809 11.7842C7.03812 11.3374 7.40083 10.9756 7.84766 10.9756H16.8809ZM16.8809 7.73926C17.3276 7.73926 17.6902 8.10121 17.6904 8.54785C17.6904 8.99471 17.3277 9.35742 16.8809 9.35742H7.84766C7.4008 9.35742 7.03809 8.99471 7.03809 8.54785C7.03833 8.10121 7.40096 7.73926 7.84766 7.73926H16.8809ZM12.0273 4.50293C12.474 4.50305 12.8359 4.86572 12.8359 5.3125C12.8358 5.75917 12.474 6.12097 12.0273 6.12109H7.84766C7.40088 6.12109 7.03821 5.75925 7.03809 5.3125C7.03809 4.86565 7.4008 4.50293 7.84766 4.50293H12.0273ZM22.9219 1.61816C22.1191 1.61816 21.4658 2.27114 21.4658 3.07422V5.87793H24.3779V3.07422C24.3779 2.27129 23.7245 1.61831 22.9219 1.61816Z" fill="url(#paint0_linear_118_1740)"/>
<defs>
<linearGradient id="paint0_linear_118_1740" x1="2.23961e-07" y1="13.5" x2="25.577" y2="13.5" gradientUnits="userSpaceOnUse">
<stop stop-color="#DE7273"/>
<stop offset="0.514423" stop-color="#97C6E2"/>
<stop offset="1" stop-color="#7373B4"/>
</linearGradient>
</defs>
</svg>
