<svg width="19" height="24" viewBox="0 0 19 24" fill="none" xmlns="http://www.w3.org/2000/svg">
<path d="M12.4277 0C12.6552 3.8087e-05 12.8726 0.0904669 13.0332 0.250977L18.6055 5.82324C18.7662 5.98387 18.8574 6.20203 18.8574 6.42969V23.1426C18.8574 23.6163 18.4737 23.9999 18 24H0.857422C0.383684 24 0 23.6163 0 23.1426V0.857422C0 0.383684 0.383684 0 0.857422 0H12.4277ZM1.71387 22.2852H17.1426V6.78418L12.0723 1.71387H1.71387V22.2852ZM7.88574 15.7715C8.1702 15.3924 8.70665 15.3171 9.08496 15.5996C9.46416 15.8834 9.5414 16.4215 9.25684 16.7998L6.68555 20.2275C6.53666 20.4266 6.30908 20.5507 6.06152 20.5684C6.04054 20.57 6.02004 20.5713 6 20.5713C5.7732 20.5713 5.55504 20.4819 5.39355 20.3203L3.67969 18.6055C3.34505 18.2707 3.34495 17.7284 3.67969 17.3936C4.01444 17.0588 4.55674 17.059 4.8916 17.3936L5.90723 18.4092L7.88574 15.7715ZM14.5713 18C15.0449 18 15.4285 18.3829 15.4287 18.8564C15.4287 19.3302 15.045 19.7139 14.5713 19.7139H10.2852C9.81163 19.7136 9.42871 19.33 9.42871 18.8564C9.42896 18.3831 9.81178 18.0002 10.2852 18H14.5713ZM7.88574 10.6289C8.17024 10.2498 8.70664 10.1735 9.08496 10.457C9.46411 10.7408 9.54127 11.2779 9.25684 11.6562L6.68555 15.085C6.53665 15.2841 6.30909 15.4081 6.06152 15.4258C6.04054 15.4274 6.02004 15.4287 6 15.4287C5.7732 15.4287 5.55504 15.3383 5.39355 15.1768L3.67969 13.4629C3.34492 13.1281 3.34496 12.5859 3.67969 12.251C4.01448 11.9161 4.55672 11.9162 4.8916 12.251L5.90723 13.2666L7.88574 10.6289ZM14.5713 12.8574C15.045 12.8574 15.4286 13.2402 15.4287 13.7139C15.4287 14.1876 15.045 14.5713 14.5713 14.5713H10.2852C9.81163 14.571 9.42871 14.1875 9.42871 13.7139C9.42883 13.2404 9.8117 12.8577 10.2852 12.8574H14.5713ZM7.88574 5.48633C8.17026 5.10634 8.70663 5.03083 9.08496 5.31445C9.46415 5.59825 9.54139 6.13533 9.25684 6.51367L6.68555 9.94238C6.53665 10.1415 6.30907 10.2655 6.06152 10.2832C6.04054 10.2848 6.02004 10.2852 6 10.2852C5.7732 10.2852 5.55504 10.1957 5.39355 10.0342L3.67969 8.32031C3.34495 7.98557 3.34506 7.44329 3.67969 7.1084C4.01448 6.77352 4.55672 6.7736 4.8916 7.1084L5.90723 8.12305L7.88574 5.48633ZM14.5713 7.71387C15.045 7.71387 15.4287 8.09755 15.4287 8.57129C15.4287 9.04501 15.045 9.42871 14.5713 9.42871H10.2852C9.81164 9.42847 9.42873 9.04486 9.42871 8.57129C9.42871 8.0977 9.81163 7.71411 10.2852 7.71387H14.5713Z" fill="url(#paint0_linear_118_1771)"/>
<defs>
<linearGradient id="paint0_linear_118_1771" x1="1.6246e-07" y1="13.5" x2="18.5534" y2="13.5" gradientUnits="userSpaceOnUse">
<stop stop-color="#DE7273"/>
<stop offset="0.514423" stop-color="#97C6E2"/>
<stop offset="1" stop-color="#7373B4"/>
</linearGradient>
</defs>
</svg>
