<svg width="169" height="139" viewBox="0 0 169 139" fill="none" xmlns="http://www.w3.org/2000/svg">
<path d="M96.3995 45.0679C91.3269 42.29 85.1859 42.29 80.1166 45.0679C80.1166 45.0679 30.3313 72.4426 30.3313 72.5873C30.3313 83.7975 30.2787 117.629 30.2787 117.629C30.2787 128.287 38.9181 136.926 49.5761 136.926H126.943C137.601 136.926 146.241 128.287 146.241 117.629C146.241 117.629 146.241 83.7482 146.241 72.5347C146.241 72.39 96.4027 45.0646 96.4027 45.0646L96.3995 45.0679Z" fill="white" stroke="#03211D" stroke-miterlimit="10"/>
<path d="M122.577 30.0935H57.009C53.5866 30.0935 50.8121 32.8679 50.8121 36.2904V108.384C50.8121 111.807 53.5866 114.581 57.009 114.581H122.577C126 114.581 128.774 111.807 128.774 108.384V36.2904C128.774 32.8679 126 30.0935 122.577 30.0935Z" fill="white" stroke="#03211D" stroke-miterlimit="10"/>
<path d="M146.142 72.584C143.821 74.0042 96.3995 100.238 96.3995 100.238C91.3269 103.016 85.1859 103.016 80.1166 100.238C80.1166 100.238 32.695 74.0042 30.374 72.584C30.3148 72.6333 30.2787 72.7023 30.2787 72.7845V117.629C30.2787 128.287 38.9181 136.926 49.5761 136.926H126.943C137.601 136.926 146.241 128.287 146.241 117.629V72.7845C146.241 72.7023 146.201 72.6333 146.145 72.584H146.142Z" fill="white" stroke="#03211D" stroke-miterlimit="10"/>
<path d="M81.3461 79.4942L68.8767 63.7702C67.0686 61.4887 67.45 58.175 69.7315 56.3668C72.0097 54.5587 75.3267 54.9401 77.1348 57.2216L83.2298 64.9077L102.356 50.5579C104.684 48.8123 107.988 49.2824 109.733 51.6099C111.479 53.9374 111.009 57.2413 108.681 58.987L81.3494 79.4942H81.3461Z" fill="url(#paint0_linear_134_3789)"/>
<path d="M14.2982 137.13H24.7392" stroke="#7D8AC1" stroke-width="3" stroke-miterlimit="10" stroke-linecap="round"/>
<path d="M110.785 137.13H146.241" stroke="#7D8AC1" stroke-width="3" stroke-miterlimit="10" stroke-linecap="round"/>
<path d="M30.2786 137.13H99.8085" stroke="#7D8AC1" stroke-width="3" stroke-miterlimit="10" stroke-linecap="round"/>
<path d="M156.215 137.13H167.487" stroke="#7D8AC1" stroke-width="3" stroke-miterlimit="10" stroke-linecap="round"/>
<path d="M3.93284 113.95C2.85126 113.95 1.84201 113.523 1.09247 112.74C0.365938 111.984 -0.0219831 110.988 0.00102914 109.936C0.0240414 108.884 0.451412 107.904 1.20753 107.178C1.94392 106.471 2.91044 106.083 3.92955 106.083C5.01112 106.083 6.02038 106.514 6.76992 107.293C8.27229 108.858 8.21969 111.353 6.65486 112.855C5.91847 113.562 4.95195 113.95 3.93284 113.95ZM3.92955 107C3.14713 107 2.40417 107.299 1.84201 107.839C1.26013 108.398 0.931382 109.147 0.914944 109.956C0.898507 110.764 1.19438 111.527 1.75325 112.106C2.32527 112.704 3.10111 113.033 3.93284 113.033C4.71525 113.033 5.45822 112.734 6.02038 112.195C7.2203 111.044 7.25975 109.127 6.10914 107.927C5.53712 107.329 4.76128 107 3.92955 107Z" fill="#BFDBD1"/>
<path d="M117.396 5.83196C116.621 5.81552 115.894 5.49664 115.355 4.93448C114.816 4.37233 114.526 3.63265 114.543 2.85681C114.559 2.07768 114.878 1.35115 115.44 0.812004C115.986 0.289297 116.706 0 117.469 0H117.518C118.297 0.0164373 119.024 0.335321 119.563 0.897478C120.102 1.45963 120.391 2.19931 120.375 2.97516C120.358 3.75428 120.039 4.48081 119.477 5.01996C118.932 5.54267 118.215 5.83196 117.459 5.83196H117.396ZM117.459 0.917203C116.939 0.917203 116.45 1.11445 116.075 1.47278C115.69 1.84427 115.47 2.34067 115.46 2.87324C115.45 3.4091 115.647 3.91537 116.016 4.3C116.387 4.68464 116.884 4.9049 117.416 4.91476C117.968 4.91476 118.468 4.71751 118.84 4.35918C119.224 3.98769 119.444 3.49129 119.454 2.95872C119.464 2.42615 119.267 1.91988 118.899 1.53196C118.527 1.14733 118.031 0.927065 117.498 0.917203L117.456 0.667355V0.917203H117.459Z" fill="#BFDBD1"/>
<path d="M164.111 125.792C163.782 125.792 163.473 125.66 163.243 125.423L162.254 124.391C162.119 124.253 161.942 124.174 161.748 124.174C161.567 124.174 161.393 124.243 161.261 124.371L160.202 125.387C159.979 125.604 159.683 125.723 159.371 125.723C159.039 125.723 158.733 125.591 158.503 125.351C158.046 124.874 158.059 124.112 158.539 123.651L159.598 122.636C159.732 122.507 159.808 122.33 159.811 122.142C159.815 121.955 159.745 121.778 159.617 121.643L158.628 120.614C158.167 120.137 158.184 119.374 158.664 118.914L158.763 118.822C158.986 118.605 159.282 118.487 159.594 118.487C159.923 118.487 160.232 118.618 160.462 118.855L161.452 119.884C161.586 120.022 161.764 120.101 161.958 120.101C162.139 120.101 162.313 120.032 162.444 119.904L163.503 118.888C163.727 118.671 164.022 118.553 164.335 118.553C164.664 118.553 164.973 118.684 165.203 118.921C165.426 119.154 165.545 119.457 165.538 119.779C165.531 120.101 165.4 120.4 165.17 120.62L164.111 121.636C163.832 121.906 163.822 122.35 164.092 122.629L165.081 123.658C165.541 124.135 165.525 124.897 165.048 125.358L164.953 125.45C164.729 125.667 164.433 125.785 164.121 125.785L164.111 125.792Z" fill="#BFDBD1"/>
<path d="M155.14 86.6148C154.887 86.5819 154.706 86.3518 154.739 86.102C154.778 85.8094 154.814 85.5168 154.847 85.2242C154.877 84.9908 155.071 84.8198 155.304 84.8198H155.36C155.607 84.8527 155.787 85.0796 155.761 85.3294C155.725 85.6253 155.689 85.9211 155.653 86.217C155.623 86.4439 155.429 86.6181 155.199 86.6181H155.143L155.14 86.6148ZM155.39 84.4911C155.14 84.4681 154.956 84.2413 154.979 83.9914C155.021 83.5772 155.058 83.1663 155.09 82.7553C155.11 82.512 155.304 82.3345 155.554 82.3345C155.708 82.3444 155.817 82.4036 155.896 82.4956C155.975 82.5877 156.011 82.7093 156.001 82.8309C155.968 83.2484 155.929 83.6659 155.889 84.0835C155.866 84.3202 155.669 84.4977 155.436 84.4977H155.39V84.4911ZM155.613 82.0025C155.488 81.9959 155.376 81.94 155.294 81.848C155.212 81.7559 155.173 81.6376 155.179 81.5159C155.206 81.1017 155.229 80.6908 155.248 80.2766C155.258 80.0366 155.462 79.8393 155.702 79.8393C155.978 79.8525 156.175 80.0662 156.162 80.3193C156.142 80.7368 156.119 81.1543 156.093 81.5751C156.077 81.8151 155.876 82.0025 155.636 82.0025H155.61H155.613ZM155.745 79.5073C155.485 79.5007 155.284 79.287 155.294 79.0372C155.307 78.623 155.314 78.212 155.317 77.7978C155.317 77.5381 155.508 77.3442 155.755 77.3442C155.902 77.3442 156.018 77.3967 156.103 77.4822C156.188 77.571 156.234 77.686 156.234 77.8077C156.231 78.2252 156.221 78.646 156.211 79.0635C156.205 79.3133 156.001 79.5073 155.755 79.5073H155.748H155.745ZM155.778 77.0088C155.528 77.0088 155.321 76.805 155.321 76.5552C155.321 76.1409 155.311 75.7267 155.301 75.3158C155.301 75.1941 155.344 75.0758 155.426 74.987C155.511 74.8983 155.623 74.8457 155.748 74.8457C156.008 74.8457 156.211 75.0462 156.218 75.2928C156.228 75.7103 156.234 76.1311 156.241 76.5486C156.241 76.8017 156.037 77.0088 155.784 77.0088H155.778ZM155.712 74.5136C155.465 74.5136 155.265 74.323 155.255 74.0764C155.238 73.6622 155.215 73.248 155.189 72.837C155.183 72.7154 155.222 72.5971 155.304 72.505C155.386 72.413 155.498 72.3571 155.62 72.3505C155.889 72.3505 156.09 72.5379 156.103 72.7812C156.129 73.1987 156.152 73.6162 156.169 74.0337C156.179 74.2868 155.985 74.5005 155.732 74.5104H155.712V74.5136ZM155.557 72.0217C155.321 72.0217 155.12 71.8376 155.1 71.601C155.067 71.19 155.028 70.7791 154.989 70.3682C154.966 70.115 155.15 69.8915 155.399 69.8685H155.403C155.685 69.8685 155.876 70.0394 155.899 70.2794C155.942 70.6969 155.978 71.1144 156.011 71.5319C156.031 71.785 155.843 72.0053 155.59 72.025H155.554L155.557 72.0217ZM155.307 69.5364C155.074 69.5364 154.88 69.3622 154.854 69.1321C154.804 68.7211 154.752 68.3135 154.696 67.9026C154.68 67.7809 154.712 67.6593 154.785 67.5639C154.86 67.4653 154.966 67.4029 155.087 67.3864H155.153C155.376 67.3831 155.57 67.5508 155.603 67.7776C155.662 68.1918 155.715 68.6094 155.761 69.0236C155.778 69.1452 155.745 69.2636 155.669 69.3589C155.593 69.4542 155.485 69.5167 155.363 69.5298H155.311L155.307 69.5364ZM154.969 67.0642C154.742 67.0642 154.555 66.9032 154.518 66.6796C154.456 66.2687 154.387 65.861 154.318 65.4534C154.295 65.335 154.324 65.2134 154.394 65.1115C154.463 65.0096 154.568 64.9438 154.689 64.9241H154.712L154.768 64.9175C154.992 64.9175 155.183 65.0786 155.222 65.2989C155.294 65.7098 155.36 66.124 155.426 66.5383C155.465 66.7881 155.294 67.0215 155.044 67.061L154.972 67.0675L154.969 67.0642ZM154.538 64.6019C154.321 64.6019 154.131 64.4474 154.088 64.2305C154.009 63.8228 153.927 63.4184 153.838 63.0141C153.812 62.8925 153.838 62.7708 153.9 62.6689C153.966 62.567 154.071 62.4947 154.19 62.4717L154.216 62.4651H154.285C154.499 62.4618 154.689 62.613 154.732 62.8234C154.821 63.2344 154.903 63.6453 154.985 64.0562C155.031 64.3061 154.87 64.546 154.624 64.5921H154.601L154.538 64.6019ZM154.015 62.1594C153.802 62.1594 153.618 62.0147 153.568 61.8043C153.476 61.4032 153.378 61.0022 153.276 60.5978C153.246 60.4795 153.263 60.3578 153.325 60.2526C153.388 60.1474 153.486 60.0718 153.605 60.0422C153.641 60.0324 153.68 60.0291 153.716 60.0291C153.927 60.0291 154.108 60.1704 154.16 60.3743C154.262 60.7819 154.361 61.1895 154.456 61.5972C154.482 61.7155 154.463 61.8372 154.4 61.9424C154.334 62.0476 154.236 62.1199 154.114 62.1462L154.088 62.1528L154.012 62.1594H154.015ZM153.404 59.7365C153.197 59.7365 153.016 59.5984 152.963 59.3979C152.855 59.0001 152.743 58.599 152.628 58.2045C152.592 58.0895 152.605 57.9646 152.664 57.8561C152.723 57.7476 152.819 57.6687 152.937 57.6358C152.98 57.6227 153.023 57.6161 153.069 57.6161C153.269 57.6161 153.45 57.7509 153.506 57.9481C153.624 58.3492 153.739 58.7535 153.848 59.1579C153.914 59.4012 153.769 59.6543 153.526 59.7201C153.486 59.7299 153.447 59.7365 153.404 59.7365ZM152.704 57.3366C152.503 57.3366 152.326 57.2084 152.267 57.0145C152.145 56.62 152.017 56.2255 151.885 55.831C151.806 55.591 151.934 55.3313 152.174 55.2524C152.224 55.236 152.27 55.2294 152.319 55.2294C152.516 55.2294 152.691 55.3543 152.753 55.5417C152.888 55.9428 153.016 56.3405 153.141 56.7416C153.217 56.9816 153.082 57.2413 152.839 57.3136C152.796 57.3268 152.75 57.3334 152.704 57.3334V57.3366ZM151.915 54.9631C151.721 54.9631 151.55 54.8415 151.484 54.6606C151.346 54.2694 151.205 53.8782 151.06 53.4903C150.971 53.2536 151.093 52.9873 151.33 52.9019C151.379 52.8821 151.435 52.8723 151.491 52.8723C151.681 52.8723 151.856 52.9906 151.921 53.1714C152.069 53.5659 152.211 53.9571 152.352 54.3549C152.391 54.47 152.385 54.5949 152.332 54.7034C152.28 54.8119 152.188 54.8973 152.073 54.9368C152.023 54.9532 151.971 54.9631 151.918 54.9631H151.915ZM151.04 52.6191C150.85 52.6191 150.682 52.5041 150.613 52.3298C150.462 51.9452 150.304 51.5606 150.146 51.1792C150.051 50.9458 150.159 50.6762 150.393 50.5809C150.452 50.5579 150.508 50.5447 150.57 50.5447C150.754 50.5447 150.922 50.6565 150.994 50.8275C151.155 51.2154 151.313 51.6033 151.468 51.9945C151.56 52.2312 151.445 52.4975 151.211 52.5895C151.159 52.6126 151.099 52.6224 151.044 52.6224L151.04 52.6191ZM150.08 50.3113C149.9 50.3113 149.732 50.2028 149.66 50.0352C149.495 49.6571 149.324 49.2791 149.15 48.901C149.101 48.7892 149.094 48.6643 149.137 48.5492C149.18 48.4342 149.265 48.3421 149.377 48.2928C149.436 48.2665 149.502 48.2501 149.568 48.2501C149.745 48.2501 149.909 48.3553 149.985 48.5164C150.159 48.8977 150.333 49.2824 150.498 49.6637C150.6 49.8971 150.491 50.1667 150.261 50.2653C150.202 50.2916 150.143 50.3048 150.077 50.3048L150.08 50.3113ZM149.038 48.0364C148.864 48.0364 148.7 47.9345 148.624 47.7767C148.446 47.4052 148.262 47.0337 148.075 46.6622C147.963 46.4354 148.052 46.1593 148.279 46.0475C148.341 46.0146 148.414 45.9982 148.483 45.9982C148.657 45.9982 148.815 46.0935 148.894 46.2513C149.081 46.6261 149.268 47.0041 149.449 47.3822C149.558 47.609 149.459 47.8852 149.235 47.9937C149.176 48.0233 149.107 48.0397 149.038 48.0397V48.0364ZM147.914 45.7976C147.743 45.7976 147.588 45.7056 147.51 45.5544C147.319 45.1862 147.122 44.8213 146.924 44.4564C146.865 44.3512 146.852 44.2262 146.885 44.1079C146.918 43.9895 146.997 43.8942 147.105 43.835C147.171 43.7989 147.247 43.7791 147.325 43.7791C147.493 43.7791 147.648 43.8712 147.727 44.0158C147.927 44.384 148.128 44.7555 148.322 45.127C148.437 45.3505 148.351 45.6267 148.128 45.745C148.065 45.7779 147.99 45.7976 147.914 45.7976ZM146.714 43.6016C146.55 43.6016 146.395 43.5129 146.316 43.3682C146.112 43.0099 145.905 42.6482 145.692 42.2932C145.629 42.188 145.613 42.0631 145.642 41.9447C145.672 41.8264 145.747 41.7278 145.853 41.6653C145.922 41.6226 146.004 41.5996 146.086 41.5996C146.247 41.5996 146.398 41.685 146.481 41.8231C146.694 42.1847 146.905 42.5496 147.112 42.9145C147.171 43.0197 147.187 43.1447 147.155 43.263C147.122 43.3814 147.046 43.48 146.938 43.5392C146.869 43.5786 146.79 43.5983 146.711 43.5983L146.714 43.6016ZM145.438 41.445C145.277 41.445 145.133 41.3629 145.051 41.2281C144.834 40.8763 144.613 40.5245 144.39 40.1728C144.324 40.0709 144.301 39.946 144.327 39.8276C144.354 39.7093 144.426 39.6073 144.528 39.5416C144.603 39.4956 144.686 39.4693 144.774 39.4693C144.932 39.4693 145.077 39.5482 145.159 39.6797C145.386 40.0347 145.609 40.3898 145.826 40.7481C145.892 40.8533 145.912 40.9749 145.882 41.0933C145.853 41.2116 145.78 41.3135 145.675 41.376C145.606 41.4187 145.521 41.445 145.435 41.445H145.438ZM144.091 39.3345C143.936 39.3345 143.795 39.2589 143.709 39.1307C143.482 38.7855 143.249 38.4436 143.016 38.1017C142.947 37.9998 142.92 37.8781 142.943 37.7598C142.966 37.6382 143.035 37.5362 143.134 37.4639C143.21 37.4113 143.298 37.385 143.394 37.385C143.545 37.385 143.686 37.4606 143.772 37.5856C144.008 37.9307 144.242 38.2792 144.472 38.6277C144.61 38.8381 144.554 39.1241 144.344 39.2622C144.268 39.3115 144.183 39.3378 144.091 39.3378V39.3345ZM142.68 37.2732C142.532 37.2732 142.394 37.2009 142.306 37.0793C142.066 36.744 141.826 36.4086 141.579 36.0733C141.431 35.8695 141.474 35.5835 141.678 35.4323C141.757 35.3731 141.852 35.3435 141.95 35.3435C142.095 35.3435 142.233 35.4125 142.322 35.5309C142.569 35.8695 142.815 36.2081 143.058 36.55C143.203 36.7538 143.157 37.0398 142.95 37.1878C142.871 37.2437 142.779 37.2732 142.684 37.2732H142.68Z" fill="#BFDBD1"/>
<path d="M22.6484 117.787C22.4906 117.787 22.3459 117.708 22.2605 117.573C22.0369 117.218 21.8167 116.859 21.5997 116.501C21.5372 116.396 21.5175 116.274 21.5471 116.156C21.5767 116.038 21.649 115.936 21.7542 115.873C21.8265 115.831 21.9054 115.808 21.9909 115.808C22.152 115.808 22.2999 115.893 22.3821 116.028C22.5958 116.383 22.8128 116.735 23.033 117.086C23.1678 117.3 23.102 117.583 22.8884 117.718C22.816 117.764 22.7306 117.787 22.6451 117.787H22.6484ZM21.3531 115.643C21.1887 115.643 21.0375 115.554 20.9553 115.416C20.7449 115.051 20.5378 114.69 20.334 114.322C20.2124 114.101 20.2913 113.822 20.5115 113.697C20.5806 113.658 20.6562 113.641 20.7351 113.641C20.9027 113.641 21.054 113.73 21.1361 113.874C21.3367 114.236 21.5405 114.598 21.7509 114.956C21.8791 115.173 21.8035 115.456 21.5865 115.581C21.5175 115.62 21.4353 115.643 21.3564 115.643H21.3531ZM20.14 113.457C19.9691 113.457 19.8146 113.365 19.7357 113.214C19.5384 112.842 19.3445 112.471 19.1538 112.099C19.0979 111.991 19.0881 111.866 19.1275 111.747C19.167 111.632 19.2459 111.537 19.3543 111.481C19.4201 111.448 19.4924 111.432 19.5615 111.432C19.7357 111.432 19.8902 111.527 19.9691 111.682C20.1565 112.05 20.3472 112.418 20.5444 112.783C20.6036 112.892 20.6134 113.013 20.5773 113.132C20.5411 113.25 20.4622 113.345 20.3537 113.404C20.288 113.441 20.2124 113.457 20.14 113.457ZM19.0026 111.231C18.8283 111.231 18.6705 111.133 18.5917 110.975C18.4076 110.597 18.2267 110.219 18.0492 109.837C17.944 109.607 18.0426 109.334 18.2695 109.229C18.3287 109.2 18.3944 109.187 18.4634 109.187C18.641 109.187 18.8053 109.292 18.8777 109.45C19.0519 109.824 19.2294 110.199 19.4135 110.571C19.5253 110.797 19.43 111.074 19.2031 111.182C19.1374 111.215 19.0716 111.228 19.0026 111.228V111.231ZM17.944 108.966C17.7632 108.966 17.5988 108.858 17.5265 108.693C17.3556 108.309 17.1879 107.924 17.0268 107.54C16.9775 107.428 16.9775 107.303 17.0268 107.188C17.0728 107.073 17.1583 106.984 17.2734 106.938C17.3293 106.915 17.3917 106.902 17.4509 106.902C17.635 106.902 17.8027 107.01 17.8717 107.181C18.0328 107.563 18.1972 107.944 18.3681 108.322C18.4174 108.434 18.4207 108.559 18.378 108.67C18.3352 108.785 18.2498 108.874 18.1347 108.927C18.0755 108.953 18.0131 108.966 17.9473 108.966H17.944ZM16.9676 106.662C16.7803 106.662 16.6126 106.55 16.5436 106.372C16.3858 105.985 16.2345 105.593 16.0833 105.202C15.9946 104.965 16.1129 104.702 16.3463 104.61C16.3989 104.591 16.4548 104.581 16.5107 104.581C16.6981 104.581 16.8723 104.699 16.9381 104.877C17.086 105.261 17.2372 105.649 17.3917 106.034C17.4377 106.146 17.4377 106.271 17.3917 106.382C17.3457 106.494 17.2537 106.583 17.1419 106.629C17.086 106.652 17.0301 106.662 16.9709 106.662H16.9676ZM16.0767 104.328C15.8828 104.328 15.7118 104.206 15.6461 104.025C15.5047 103.631 15.3634 103.236 15.2286 102.838C15.1891 102.723 15.1957 102.598 15.2516 102.49C15.3042 102.382 15.3995 102.296 15.5146 102.257C15.5639 102.24 15.6132 102.23 15.6625 102.23C15.8598 102.23 16.034 102.355 16.0965 102.539C16.2313 102.931 16.3693 103.322 16.5107 103.71C16.5534 103.825 16.5468 103.95 16.4942 104.058C16.4416 104.17 16.3496 104.252 16.2345 104.295C16.1885 104.311 16.1359 104.321 16.08 104.321L16.0767 104.328ZM15.2647 101.964C15.0642 101.964 14.89 101.836 14.8275 101.645C14.6993 101.247 14.5744 100.846 14.4494 100.445C14.3771 100.202 14.5119 99.9455 14.7552 99.8732C14.7946 99.86 14.8407 99.8534 14.89 99.8534C15.0872 99.8534 15.268 99.9882 15.3272 100.179C15.4488 100.577 15.5705 100.971 15.6987 101.366C15.7348 101.481 15.725 101.606 15.6691 101.714C15.6132 101.823 15.5179 101.905 15.4028 101.941C15.3568 101.954 15.3108 101.964 15.2614 101.964H15.2647ZM14.5382 99.574C14.3344 99.574 14.1536 99.4359 14.0977 99.242C13.9826 98.8376 13.8709 98.4333 13.7624 98.0289C13.6966 97.7856 13.8446 97.5325 14.0878 97.47C14.1273 97.4602 14.1667 97.4536 14.2062 97.4536C14.4133 97.4536 14.5941 97.5917 14.65 97.7922C14.7552 98.1933 14.867 98.591 14.9787 98.9888C15.0116 99.1072 14.9985 99.2288 14.9393 99.3373C14.8801 99.4458 14.7815 99.5214 14.6631 99.5543C14.6204 99.5674 14.5809 99.5707 14.5382 99.5707V99.574ZM13.8972 97.1577C13.6868 97.1577 13.5027 97.0164 13.4533 96.8093C13.3514 96.4016 13.2561 95.994 13.164 95.5863C13.1082 95.3398 13.2627 95.0932 13.5092 95.0373L13.5355 95.0307L13.6111 95.0242C13.8215 95.0242 14.0089 95.1754 14.0582 95.3792C14.1503 95.7836 14.2456 96.1846 14.3442 96.589C14.4034 96.8323 14.2555 97.0821 14.0089 97.1446C13.9695 97.1544 13.9333 97.1577 13.8972 97.1577ZM13.3383 94.7217C13.1246 94.7217 12.9339 94.5705 12.8912 94.3568C12.8057 93.9459 12.7235 93.5349 12.6446 93.124C12.6216 93.0024 12.6446 92.8807 12.717 92.7821C12.786 92.6802 12.8912 92.6112 13.0095 92.5882H13.0325L13.095 92.5816C13.3153 92.5816 13.5059 92.7394 13.5454 92.9531C13.6243 93.3574 13.7032 93.7651 13.7887 94.1694C13.8413 94.416 13.6835 94.6592 13.4336 94.7119L13.4073 94.7184H13.3383V94.7217ZM12.8682 92.266C12.6446 92.266 12.454 92.1049 12.4178 91.8846C12.3455 91.4704 12.2764 91.0595 12.214 90.6453C12.1745 90.3954 12.3455 90.162 12.5953 90.1226L12.6644 90.116C12.8912 90.116 13.0819 90.2803 13.118 90.5039C13.1805 90.9115 13.2495 91.3192 13.3186 91.7301C13.3383 91.8518 13.312 91.9734 13.2429 92.072C13.1739 92.1706 13.0687 92.2397 12.9471 92.2594H12.9273L12.8682 92.266ZM12.4835 89.7971C12.2567 89.7971 12.0627 89.6261 12.0299 89.4026C11.9707 88.9884 11.9181 88.5709 11.8688 88.1566C11.8556 88.035 11.8885 87.9167 11.9641 87.818C12.0397 87.7227 12.1482 87.6602 12.2699 87.6471H12.3225C12.5526 87.6471 12.7531 87.8213 12.7794 88.0482C12.8287 88.4591 12.8813 88.87 12.9372 89.281C12.9536 89.4026 12.9241 89.5209 12.8484 89.6196C12.7761 89.7182 12.6676 89.7806 12.546 89.7971H12.4835ZM12.1844 87.3183C11.9477 87.3183 11.7537 87.1408 11.7307 86.9074C11.688 86.4899 11.6485 86.0724 11.6124 85.6549C11.5894 85.4017 11.7767 85.1815 12.0299 85.1585H12.0332C12.3027 85.1585 12.5033 85.3459 12.523 85.576C12.5592 85.9869 12.5986 86.4011 12.6381 86.8121C12.6644 87.0619 12.4803 87.2888 12.2304 87.3151H12.1844V87.3183ZM11.9707 84.8264C11.7307 84.8264 11.5302 84.6391 11.5137 84.3991C11.4842 83.9816 11.4611 83.5641 11.4414 83.1433C11.4283 82.8901 11.6255 82.6764 11.8754 82.6633C12.1482 82.6633 12.3422 82.8507 12.352 83.0972C12.3718 83.5115 12.3981 83.9224 12.4244 84.3366C12.4342 84.4583 12.3915 84.5766 12.3126 84.6686C12.2337 84.7607 12.1219 84.8166 12.0003 84.8232H11.9674L11.9707 84.8264ZM11.8458 82.3313C11.5959 82.3313 11.3954 82.1373 11.3888 81.8875C11.3757 81.4699 11.3658 81.0491 11.3592 80.6316C11.3592 80.51 11.402 80.3949 11.4874 80.3062C11.5729 80.2174 11.688 80.1681 11.8096 80.1681C12.0595 80.1681 12.2699 80.3752 12.2731 80.6185C12.2797 81.0327 12.2896 81.4436 12.3027 81.8579C12.3093 82.111 12.1121 82.3214 11.8589 82.3313H11.8425H11.8458ZM11.8063 79.8361C11.5532 79.8361 11.3494 79.629 11.3494 79.3791C11.3494 78.9583 11.3527 78.5408 11.3625 78.12C11.3658 77.8735 11.5663 77.6696 11.8096 77.6696C12.0825 77.6762 12.283 77.8833 12.2797 78.1365C12.2699 78.5507 12.2666 78.9649 12.2666 79.3758C12.2666 79.629 12.0627 79.8328 11.8096 79.8328L11.8063 79.8361ZM11.8228 77.3343C11.7143 77.331 11.6025 77.2784 11.517 77.1897C11.4348 77.1009 11.3888 76.9825 11.3954 76.8609C11.4118 76.4434 11.4283 76.0259 11.4513 75.6051C11.4644 75.3585 11.6584 75.1712 11.9049 75.1712C12.1844 75.1843 12.3783 75.4013 12.3652 75.6544C12.3422 76.0686 12.3257 76.4796 12.3093 76.8938C12.2994 77.1404 12.0989 77.3343 11.8523 77.3343H11.8228ZM11.9444 74.8424C11.7011 74.826 11.5105 74.6057 11.5269 74.3526C11.5565 73.9351 11.5894 73.5176 11.6255 73.1001C11.6452 72.8601 11.8425 72.6825 12.0825 72.6825C12.2436 72.6957 12.3553 72.7516 12.4342 72.8469C12.5131 72.9423 12.5493 73.0606 12.5394 73.1822C12.5033 73.5932 12.4704 74.0074 12.4408 74.4183C12.4244 74.6583 12.2238 74.8457 11.9838 74.8457H11.9444V74.8424ZM12.1581 72.3538C12.0332 72.3407 11.9247 72.2815 11.8458 72.1861C11.7702 72.0908 11.734 71.9725 11.7471 71.8508C11.7899 71.4333 11.8392 71.0191 11.8885 70.6016C11.9148 70.3747 12.1153 70.2005 12.3422 70.2005H12.4014C12.5164 70.2169 12.6249 70.2794 12.7005 70.3748C12.7761 70.4701 12.809 70.5917 12.7959 70.7134C12.7465 71.1243 12.7005 71.5352 12.6545 71.9462C12.6315 72.1796 12.4342 72.3571 12.2008 72.3571H12.1548L12.1581 72.3538ZM12.4408 69.8718C12.3225 69.8553 12.214 69.7929 12.1416 69.6942C12.0693 69.5956 12.0364 69.4773 12.0529 69.3556C12.1121 68.9414 12.1712 68.5272 12.237 68.113C12.2699 67.8927 12.4671 67.725 12.6907 67.725L12.763 67.7316C12.8846 67.7514 12.9898 67.8171 13.0621 67.9157C13.1345 68.0143 13.164 68.136 13.1443 68.2576C13.0786 68.6653 13.0194 69.0762 12.9602 69.4838C12.9273 69.7074 12.7334 69.8783 12.5066 69.8783H12.4408V69.8718ZM12.8747 67.4095L12.8156 67.4029C12.6972 67.3832 12.592 67.3141 12.5197 67.2155C12.4507 67.1136 12.4211 66.9919 12.4441 66.8736C12.5164 66.4627 12.592 66.0484 12.6709 65.6375C12.7137 65.4205 12.901 65.266 13.1213 65.266H13.1443L13.2101 65.2759C13.4566 65.3219 13.6177 65.5652 13.5717 65.8117C13.4928 66.2194 13.4172 66.627 13.3481 67.0314C13.3087 67.2517 13.1213 67.4095 12.8978 67.4095H12.8747ZM13.3449 64.9603L13.2758 64.9504C13.1575 64.9241 13.0556 64.8551 12.9898 64.7532C12.9241 64.6513 12.901 64.5296 12.9241 64.408C13.0095 63.9971 13.1016 63.5894 13.1936 63.1818C13.2429 62.9714 13.4238 62.8267 13.6374 62.8267H13.667L13.7426 62.8399C13.861 62.8662 13.9629 62.9385 14.0286 63.0437C14.0944 63.1489 14.1141 63.2705 14.0878 63.3889C13.9958 63.7932 13.907 64.1976 13.8215 64.5987C13.7755 64.8091 13.5881 64.9636 13.3744 64.9636H13.3481L13.3449 64.9603ZM13.9267 62.5276C13.8906 62.5276 13.8544 62.5243 13.8183 62.5144C13.6999 62.4848 13.598 62.4125 13.5355 62.3073C13.4731 62.2021 13.4533 62.0805 13.4829 61.9621C13.5848 61.5545 13.6868 61.1501 13.7952 60.7458C13.8478 60.5452 14.0319 60.4039 14.2358 60.4039C14.2752 60.4039 14.3147 60.4072 14.3508 60.417C14.5974 60.4828 14.742 60.7326 14.6796 60.9792C14.5744 61.3802 14.4692 61.7813 14.3705 62.1824C14.3179 62.3862 14.1371 62.5309 13.9267 62.5309V62.5276ZM14.5678 60.1146C14.5251 60.1146 14.4856 60.108 14.4429 60.0981C14.3245 60.0653 14.2259 59.9864 14.1667 59.8812C14.1075 59.7727 14.0944 59.651 14.1273 59.5327C14.2423 59.1316 14.3607 58.7305 14.4823 58.3295C14.5415 58.1355 14.719 58.004 14.9196 58.004C14.9656 58.004 15.0083 58.0106 15.0543 58.0237C15.2976 58.0961 15.4324 58.3525 15.3601 58.5958C15.2417 58.9903 15.1234 59.388 15.0116 59.7858C14.9557 59.9831 14.7749 60.1179 14.5711 60.1179L14.5678 60.1146ZM15.2943 57.7246C15.245 57.7246 15.199 57.718 15.153 57.7016C15.0379 57.6654 14.9426 57.5832 14.8867 57.4747C14.8308 57.3662 14.8209 57.2413 14.8571 57.1263C14.9853 56.7285 15.1168 56.3307 15.2516 55.9362C15.314 55.7521 15.4883 55.6272 15.6855 55.6272C15.7348 55.6272 15.7842 55.6338 15.8302 55.6502C15.9485 55.6896 16.0406 55.7751 16.0965 55.8836C16.1491 55.9921 16.1589 56.117 16.1162 56.2321C15.9814 56.6233 15.8532 57.0145 15.725 57.409C15.6658 57.5997 15.4883 57.7279 15.2877 57.7279L15.2943 57.7246ZM16.0998 55.3642C16.0472 55.3642 15.9946 55.3543 15.9452 55.3379C15.7085 55.2524 15.5836 54.9894 15.6691 54.7527C15.8105 54.3582 15.9551 53.967 16.1063 53.5758C16.1721 53.3983 16.3463 53.2799 16.5337 53.2799C16.5896 53.2799 16.6422 53.2898 16.6948 53.3095C16.9315 53.3983 17.0498 53.6646 16.9611 53.9013C16.8131 54.2892 16.6718 54.6771 16.5304 55.065C16.4647 55.2458 16.2904 55.3675 16.0998 55.3675V55.3642ZM16.9841 53.0334C16.9249 53.0334 16.869 53.0235 16.8164 53.0005C16.7014 52.9545 16.6126 52.869 16.5633 52.7539C16.514 52.6422 16.514 52.5172 16.56 52.4022C16.7145 52.0143 16.8723 51.6263 17.0367 51.2417C17.109 51.0708 17.2734 50.959 17.4575 50.959C17.5199 50.959 17.5791 50.9721 17.6383 50.9951C17.7501 51.0412 17.8355 51.1299 17.8848 51.2417C17.9309 51.3568 17.9309 51.4784 17.8848 51.5935C17.7238 51.9748 17.5692 52.3562 17.4147 52.7408C17.3457 52.915 17.178 53.0301 16.9907 53.0301L16.9841 53.0334ZM17.9506 50.7322C17.8881 50.7322 17.8257 50.719 17.7665 50.6927C17.6514 50.6434 17.566 50.5513 17.5232 50.4363C17.4805 50.3212 17.4838 50.1963 17.5331 50.0845C17.7007 49.7032 17.8717 49.3218 18.0492 48.9405C18.1248 48.7794 18.2859 48.6742 18.4667 48.6742C18.5325 48.6742 18.5982 48.6873 18.6574 48.7169C18.8875 48.8221 18.9861 49.095 18.8809 49.3251C18.7067 49.6999 18.5391 50.0779 18.3714 50.456C18.2991 50.6204 18.1347 50.7289 17.9539 50.7289L17.9506 50.7322ZM18.996 48.4671C18.927 48.4671 18.8612 48.4506 18.7988 48.4211C18.5686 48.3093 18.4733 48.0364 18.5851 47.8096C18.7659 47.4348 18.95 47.0568 19.1407 46.6853C19.2196 46.5308 19.3774 46.4321 19.5483 46.4321C19.6173 46.4321 19.6897 46.4486 19.7521 46.4815C19.979 46.5965 20.071 46.8694 19.9559 47.0962C19.7686 47.4644 19.5878 47.8359 19.4069 48.2074C19.3313 48.3652 19.1702 48.4671 18.996 48.4671ZM20.117 46.2415C20.0447 46.2415 19.9691 46.225 19.9033 46.1889C19.7949 46.133 19.716 46.0376 19.6798 45.9193C19.6436 45.8009 19.6535 45.6793 19.7127 45.5708C19.9066 45.2026 20.1039 44.8311 20.3044 44.4662C20.3833 44.3183 20.5378 44.2295 20.7055 44.2295C20.7811 44.2295 20.86 44.2493 20.9257 44.2854C21.0309 44.3446 21.1098 44.4399 21.1427 44.5583C21.1756 44.6766 21.1624 44.7983 21.1033 44.9068C20.906 45.2684 20.7088 45.6333 20.5181 45.9982C20.4392 46.1494 20.2847 46.2415 20.1137 46.2415H20.117ZM21.3137 44.0553C21.2348 44.0553 21.1526 44.0356 21.0868 43.9928C20.8699 43.8679 20.791 43.5885 20.9192 43.3682C21.1263 43.0066 21.3367 42.645 21.5504 42.2834C21.6326 42.1453 21.7838 42.0598 21.9449 42.0598C22.0271 42.0598 22.1059 42.0828 22.1783 42.1223C22.3952 42.2505 22.4676 42.5332 22.3394 42.7502C22.129 43.1052 21.9219 43.4636 21.718 43.8219C21.6358 43.9633 21.4846 44.052 21.3202 44.052L21.3137 44.0553ZM22.5859 41.9119C22.5004 41.9119 22.4183 41.8889 22.3459 41.8428C22.1322 41.7113 22.0665 41.4286 22.198 41.2117C22.4183 40.8566 22.6385 40.5016 22.8654 40.1498C22.9475 40.0183 23.0922 39.9394 23.25 39.9394C23.3387 39.9394 23.4242 39.9657 23.4965 40.0117C23.5985 40.0775 23.6708 40.1794 23.6971 40.2977C23.7234 40.4161 23.7004 40.541 23.6346 40.6429C23.4111 40.9914 23.1908 41.3399 22.9771 41.6916C22.8949 41.8264 22.747 41.9086 22.5859 41.9086V41.9119ZM23.9305 39.8145C23.8417 39.8145 23.753 39.7882 23.6774 39.7389C23.5754 39.6698 23.5064 39.5679 23.4801 39.4463C23.4571 39.3246 23.4801 39.203 23.5491 39.1011C23.7793 38.7526 24.016 38.4074 24.2527 38.0623C24.3381 37.9373 24.4762 37.865 24.6274 37.865C24.7195 37.865 24.8115 37.8946 24.8871 37.9472C24.9891 38.0162 25.0548 38.1214 25.0778 38.2431C25.1008 38.3647 25.0745 38.4863 25.0055 38.585C24.7721 38.9236 24.5387 39.2655 24.3118 39.6107C24.2297 39.7389 24.085 39.8145 23.9305 39.8145ZM25.3474 37.7631C25.2521 37.7631 25.16 37.7335 25.0811 37.6776C24.9825 37.6053 24.9167 37.5001 24.897 37.3785C24.8773 37.2568 24.9069 37.1352 24.9759 37.0366C25.2192 36.698 25.4657 36.3594 25.7156 36.024C25.8011 35.909 25.9391 35.8399 26.0838 35.8399C26.1824 35.8399 26.2777 35.8695 26.3566 35.9287C26.4553 36.001 26.5177 36.1095 26.5375 36.2311C26.5539 36.3528 26.5243 36.4711 26.452 36.5697C26.2054 36.9018 25.9621 37.2338 25.7222 37.5691C25.6367 37.6875 25.4986 37.7598 25.3507 37.7598L25.3474 37.7631ZM26.8333 35.7643C26.7314 35.7643 26.6361 35.7314 26.5539 35.669C26.3534 35.5145 26.3172 35.2252 26.4684 35.0279C26.7215 34.6959 26.9813 34.3672 27.241 34.0417C27.3297 33.9332 27.4579 33.8707 27.5993 33.8707C27.7012 33.8707 27.8031 33.9069 27.8853 33.9694C27.9806 34.045 28.0398 34.1535 28.0563 34.2751C28.0694 34.3967 28.0365 34.5151 27.9576 34.6137C27.7012 34.9359 27.4481 35.2613 27.1949 35.5868C27.1062 35.7019 26.9747 35.7643 26.83 35.7643H26.8333ZM28.385 33.8149C28.2798 33.8149 28.1746 33.7787 28.0924 33.7097C27.8985 33.5486 27.8689 33.2593 28.03 33.0653C28.2962 32.7431 28.5658 32.421 28.8387 32.1021C28.9242 32.0002 29.0524 31.941 29.1871 31.941C29.2956 31.941 29.4008 31.9804 29.483 32.0495C29.5751 32.1284 29.6342 32.2402 29.6408 32.3618C29.6507 32.4834 29.6112 32.6018 29.5323 32.6971C29.2628 33.0127 28.9965 33.3283 28.7335 33.6472C28.648 33.7524 28.5165 33.8149 28.3817 33.8149H28.385ZM30.0057 31.918C29.894 31.918 29.7855 31.8785 29.7033 31.8029C29.5126 31.6353 29.4962 31.346 29.6638 31.1553C29.94 30.843 30.2227 30.5307 30.5054 30.2217C30.5942 30.1263 30.7158 30.0737 30.844 30.0737C30.9591 30.0737 31.0676 30.1165 31.153 30.1921C31.2451 30.2743 31.2977 30.3893 31.301 30.511C31.3076 30.6326 31.2648 30.7509 31.1826 30.8397C30.9032 31.1454 30.6271 31.4545 30.3542 31.7635C30.2654 31.8621 30.1405 31.918 30.0123 31.918H30.0057ZM31.6922 30.0737C31.5738 30.0737 31.4621 30.031 31.3766 29.9488C31.2878 29.8633 31.2352 29.7516 31.232 29.6266C31.232 29.505 31.2747 29.3866 31.3569 29.3012C31.6429 28.9987 31.9355 28.6963 32.2281 28.3938C32.3168 28.3051 32.4319 28.2558 32.5568 28.2558C32.6817 28.2558 32.7902 28.3018 32.8757 28.3873C32.9612 28.4727 33.0105 28.5878 33.0138 28.7094C33.0138 28.8311 32.9677 28.9494 32.8823 29.0349C32.593 29.3308 32.3037 29.6299 32.0209 29.9291C31.9355 30.0211 31.8138 30.0737 31.6889 30.0737H31.6922ZM33.4378 28.2886C33.3162 28.2886 33.1979 28.2393 33.1124 28.1538C32.9349 27.973 32.9349 27.6837 33.1124 27.5062C33.3688 27.2531 33.6318 26.9967 33.8915 26.7468L34.0131 26.6317C34.0986 26.5496 34.2104 26.5035 34.3287 26.5035C34.4471 26.5035 34.572 26.5528 34.6575 26.6416C34.743 26.7304 34.789 26.8454 34.7857 26.9671C34.7857 27.0887 34.7331 27.2038 34.6443 27.2892L34.5227 27.4043C34.263 27.6541 34.0066 27.904 33.7501 28.1538C33.6647 28.2393 33.5496 28.2853 33.428 28.2853L33.4378 28.2886ZM35.2459 26.5627C35.1177 26.5627 34.9961 26.5101 34.9106 26.4148C34.7397 26.2307 34.7495 25.9381 34.9369 25.7671C35.2459 25.4811 35.555 25.2017 35.8673 24.9223C35.9495 24.8467 36.0579 24.8072 36.173 24.8072C36.3045 24.8072 36.4294 24.8631 36.5149 24.9617C36.5971 25.0505 36.6365 25.1688 36.63 25.2905C36.6234 25.4121 36.5675 25.5239 36.4787 25.6061C36.1697 25.8822 35.864 26.1584 35.5583 26.4411C35.4728 26.52 35.3643 26.5627 35.2492 26.5627H35.2459ZM37.1099 24.8993C36.9784 24.8993 36.8502 24.8434 36.7648 24.7415C36.6004 24.5475 36.6201 24.2582 36.8108 24.0938C37.1297 23.8177 37.4485 23.5481 37.7707 23.2818C37.8529 23.2128 37.9581 23.1766 38.0633 23.1766C38.1981 23.1766 38.3263 23.2358 38.4151 23.341C38.5761 23.535 38.5498 23.8243 38.3559 23.9853C38.037 24.2516 37.7214 24.5179 37.4091 24.7875C37.3269 24.8598 37.2184 24.8993 37.1099 24.8993ZM39.0265 23.2983C38.8852 23.2983 38.757 23.2358 38.6682 23.1273C38.5104 22.9301 38.54 22.6441 38.7372 22.483C39.0627 22.22 39.3914 21.9603 39.7235 21.7038C39.8024 21.6414 39.9043 21.6085 40.0062 21.6085C40.1476 21.6085 40.2791 21.6742 40.3678 21.786C40.4434 21.8814 40.4763 22.003 40.4599 22.1246C40.4434 22.2463 40.3843 22.3548 40.2856 22.4304C39.9602 22.6835 39.6347 22.9399 39.3125 23.2029C39.2336 23.2687 39.1284 23.3048 39.0265 23.3048V23.2983ZM40.999 21.763C40.8544 21.763 40.7163 21.694 40.6308 21.5789C40.5585 21.4836 40.5256 21.3619 40.5453 21.2403C40.5618 21.1187 40.6242 21.0102 40.7229 20.9379C41.0582 20.6847 41.3968 20.4382 41.7354 20.1916C41.8143 20.1357 41.9063 20.1061 42.0017 20.1061C42.1496 20.1061 42.2877 20.1785 42.3732 20.2968C42.4455 20.3954 42.4751 20.5171 42.4554 20.6387C42.4356 20.7603 42.3699 20.8655 42.2713 20.9379C41.9359 21.1811 41.6039 21.4244 41.2719 21.6742C41.1897 21.7334 41.0943 21.7663 40.9957 21.7663L40.999 21.763ZM43.0241 20.2968C42.8762 20.2968 42.7348 20.2245 42.6493 20.1028C42.5803 20.0009 42.5507 19.8793 42.5737 19.7609C42.5967 19.6393 42.6625 19.5341 42.7644 19.4651C43.1096 19.2251 43.4547 18.9884 43.7999 18.755C43.8755 18.7024 43.9643 18.6761 44.0564 18.6761C44.2109 18.6761 44.3522 18.7517 44.4377 18.8799C44.5067 18.9785 44.5297 19.1002 44.5067 19.2218C44.4837 19.3434 44.4147 19.4453 44.3128 19.5144C43.9709 19.7445 43.629 19.9812 43.2904 20.2179C43.2115 20.2705 43.1227 20.3001 43.0274 20.3001L43.0241 20.2968ZM45.0952 18.9029C44.9407 18.9029 44.796 18.824 44.7106 18.6958C44.5725 18.4821 44.6349 18.1994 44.8453 18.0613C45.1971 17.8345 45.5521 17.6077 45.9072 17.3874C45.9795 17.3414 46.065 17.3184 46.1505 17.3184C46.3083 17.3184 46.4562 17.3973 46.5384 17.532C46.6041 17.634 46.6239 17.7589 46.5976 17.8772C46.5713 17.9956 46.4989 18.0975 46.3937 18.1632C46.042 18.3835 45.6935 18.6038 45.3483 18.8306C45.2727 18.8799 45.1872 18.9029 45.0985 18.9029H45.0952Z" fill="#BFDBD1"/>
<path d="M55.4572 15.0927C55.2468 15.0894 55.0529 15.004 54.9082 14.8527C54.7636 14.7015 54.6847 14.5043 54.6913 14.2939L54.7077 13.4917C54.7077 13.4161 54.6814 13.3438 54.6288 13.2879C54.5762 13.232 54.5072 13.2024 54.4315 13.2024L53.6097 13.186C53.3993 13.1827 53.2053 13.0972 53.0607 12.946C52.916 12.7948 52.8371 12.5975 52.8437 12.3871C52.8536 11.9631 53.202 11.6212 53.6261 11.6212L54.4644 11.6376C54.6222 11.6376 54.7504 11.5127 54.7537 11.3615L54.7702 10.5593C54.78 10.1352 55.1318 9.79333 55.5526 9.79333H55.6446C55.8517 9.79991 56.049 9.88538 56.1936 10.0366C56.3383 10.1878 56.4172 10.3851 56.4106 10.5955L56.3942 11.3943C56.3942 11.4699 56.4205 11.5423 56.4731 11.5982C56.5257 11.654 56.5947 11.6836 56.6703 11.6836L57.4922 11.7001C57.9228 11.7099 58.268 12.0683 58.2582 12.4989C58.2483 12.923 57.8998 13.2649 57.4757 13.2649L56.6374 13.2485C56.4796 13.2485 56.3514 13.3734 56.3481 13.5246L56.3317 14.3235C56.3218 14.7475 55.9734 15.0894 55.5493 15.0894H55.4572V15.0927Z" fill="#BFDBD1"/>
<path d="M154.896 93.5251C153.818 93.5251 152.815 93.0977 152.073 92.3219C151.349 91.569 150.961 90.5762 150.984 89.5308C151.007 88.4854 151.431 87.5123 152.188 86.7891C152.917 86.0888 153.881 85.7009 154.896 85.7009C155.975 85.7009 156.977 86.1283 157.72 86.9041C158.444 87.657 158.832 88.6498 158.809 89.6952C158.786 90.7406 158.358 91.7137 157.605 92.4402C156.872 93.1405 155.912 93.5284 154.896 93.5284V93.5251ZM154.896 86.6181C154.117 86.6181 153.381 86.914 152.822 87.4499C152.243 88.0054 151.918 88.7517 151.902 89.5505C151.885 90.3494 152.181 91.1088 152.737 91.6874C153.305 92.2824 154.075 92.6079 154.9 92.6079C155.679 92.6079 156.415 92.312 156.974 91.7762C157.553 91.2206 157.878 90.4743 157.895 89.6755C157.911 88.8733 157.615 88.1139 157.06 87.5386C156.491 86.9436 155.722 86.6181 154.896 86.6181Z" fill="#BFDBD1"/>
<defs>
<linearGradient id="paint0_linear_134_3789" x1="67.7356" y1="64.4988" x2="110.788" y2="64.4988" gradientUnits="userSpaceOnUse">
<stop stop-color="#E46B6A"/>
<stop offset="0.485577" stop-color="#9BCFE7"/>
<stop offset="1" stop-color="#716FB2"/>
</linearGradient>
</defs>
</svg>
